<?xml version="1.0" encoding="UTF-8" standalone="no"?>
<svg
   xmlns:dc="http://purl.org/dc/elements/1.1/"
   xmlns:cc="http://creativecommons.org/ns#"
   xmlns:rdf="http://www.w3.org/1999/02/22-rdf-syntax-ns#"
   xmlns:svg="http://www.w3.org/2000/svg"
   xmlns="http://www.w3.org/2000/svg"
   xmlns:sodipodi="http://sodipodi.sourceforge.net/DTD/sodipodi-0.dtd"
   xmlns:inkscape="http://www.inkscape.org/namespaces/inkscape"
   id="Layer_1"
   style="enable-background:new 0 0 64 64;"
   version="1.1"
   viewBox="0 0 64 64"
   xml:space="preserve"
   sodipodi:docname="contact.svg"
   inkscape:version="0.92.4 (5da689c313, 2019-01-14)"><metadata
     id="metadata19"><rdf:RDF><cc:Work
         rdf:about=""><dc:format>image/svg+xml</dc:format><dc:type
           rdf:resource="http://purl.org/dc/dcmitype/StillImage" /></cc:Work></rdf:RDF></metadata><defs
     id="defs17" /><sodipodi:namedview
     pagecolor="#ffffff"
     bordercolor="#666666"
     borderopacity="1"
     objecttolerance="10"
     gridtolerance="10"
     guidetolerance="10"
     inkscape:pageopacity="0"
     inkscape:pageshadow="2"
     inkscape:window-width="1691"
     inkscape:window-height="1336"
     id="namedview15"
     showgrid="false"
     inkscape:zoom="10.429825"
     inkscape:cx="21.982053"
     inkscape:cy="27.002275"
     inkscape:window-x="1083"
     inkscape:window-y="590"
     inkscape:window-maximized="0"
     inkscape:current-layer="Layer_1" /><style
     type="text/css"
     id="style2">
	.st0{fill:#56AAFF;}
	.st1{fill:#D9DCE1;}
	.st2{fill:#0478ED;}
	.st3{fill:none;stroke:#FFFFFF;stroke-width:2;stroke-miterlimit:10;}
	.st4{fill:none;stroke:#56AAFF;stroke-width:2;stroke-miterlimit:10;}
	.st5{fill:none;stroke:#FFFFFF;stroke-width:3;stroke-linecap:square;stroke-miterlimit:10;}
	.st6{fill:none;stroke:#0478ED;stroke-width:3;stroke-miterlimit:10;}
	.st7{fill:#FFFFFF;}
	.st8{fill:none;stroke:#0478ED;stroke-width:2;stroke-linecap:round;stroke-miterlimit:10;}
	.st9{fill:none;stroke:#56AAFF;stroke-width:2;stroke-linecap:square;stroke-miterlimit:10;}
	.st10{fill:none;stroke:#56AAFF;stroke-width:3;stroke-miterlimit:10;}
	.st11{fill:none;stroke:#0478ED;stroke-width:2;stroke-miterlimit:10;}
	.st12{fill:none;stroke:#56AAFF;stroke-width:9.9179;stroke-linecap:round;stroke-miterlimit:10;}
	.st13{fill:none;stroke:#D9DCE1;stroke-width:2;stroke-miterlimit:10;}
	.st14{fill:none;stroke:#56AAFF;stroke-width:5;stroke-miterlimit:10;}
	.st15{fill-rule:evenodd;clip-rule:evenodd;fill:#56AAFF;}
	.st16{fill:none;stroke:#56AAFF;stroke-width:4;stroke-linecap:square;stroke-miterlimit:10;}
	.st17{fill:none;stroke:#0478ED;stroke-width:3;stroke-linecap:square;stroke-miterlimit:10;}
	.st18{fill:none;stroke:#D9DCE1;stroke-width:4;stroke-miterlimit:10;}
	.st19{opacity:0.4;fill:#0478ED;}
	.st20{opacity:0.2;fill:#0478ED;}
	.st21{opacity:0.2;fill:#FFFFFF;}
	.st22{fill-rule:evenodd;clip-rule:evenodd;fill:#D9DCE1;}
	.st23{fill:none;stroke:#FFFFFF;stroke-width:6;stroke-miterlimit:10;}
	.st24{fill:none;stroke:#D9DCE1;stroke-width:6;stroke-miterlimit:10;}
	.st25{fill:none;stroke:#0478ED;stroke-width:3;stroke-linecap:round;stroke-linejoin:round;stroke-miterlimit:10;}
	.st26{fill:none;stroke:#0478ED;stroke-width:2;stroke-miterlimit:10;stroke-dasharray:2,2;}
	.st27{fill:none;stroke:#FFFFFF;stroke-width:4;stroke-miterlimit:10;}
	.st28{fill:none;stroke:#D9DCE1;stroke-width:4;stroke-linecap:round;stroke-linejoin:round;stroke-miterlimit:10;}
	.st29{fill:none;stroke:#0478ED;stroke-width:3;stroke-linecap:round;stroke-miterlimit:10;}
	.st30{fill:#4A4A70;}
	.st31{fill-rule:evenodd;clip-rule:evenodd;fill:#0478ED;}
	.st32{fill:none;stroke:#FFFFFF;stroke-width:2;stroke-linecap:square;stroke-miterlimit:10;}
	.st33{fill:none;stroke:#FFFFFF;stroke-width:2;stroke-linecap:round;stroke-miterlimit:10;}
	.st34{fill:none;stroke:#FFFFFF;stroke-width:2;stroke-linecap:round;stroke-linejoin:round;stroke-miterlimit:10;}
	.st35{fill:none;stroke:#56AAFF;stroke-width:4;stroke-linecap:round;stroke-linejoin:round;stroke-miterlimit:10;}
	.st36{fill:none;stroke:#FFFFFF;stroke-width:6;stroke-linecap:square;stroke-miterlimit:10;}
	.st37{fill:none;stroke:#FFFFFF;stroke-width:4;stroke-linecap:square;stroke-miterlimit:10;}
	.st38{fill:none;stroke:#0478ED;stroke-width:2;stroke-linecap:square;stroke-miterlimit:10;}
	.st39{fill:none;stroke:#FFFFFF;stroke-width:3;stroke-miterlimit:10;}
	.st40{fill:none;stroke:#FFFFFF;stroke-width:1.8022;stroke-linecap:square;stroke-miterlimit:10;}
	.st41{fill:none;stroke:#56AAFF;stroke-width:4;stroke-miterlimit:10;}
	.st42{fill:none;stroke:#FFFFFF;stroke-width:4;stroke-linecap:round;stroke-miterlimit:10;}
	.st43{fill:none;stroke:#0478ED;stroke-width:6;stroke-linecap:round;stroke-miterlimit:10;}
	.st44{fill:none;stroke:#56AAFF;stroke-width:3.7712;stroke-miterlimit:10;}
	.st45{fill:none;stroke:#D9DCE1;stroke-width:5;stroke-miterlimit:10;}
	.st46{fill:none;stroke:#D9DCE1;stroke-width:3;stroke-miterlimit:10;}
	.st47{fill-rule:evenodd;clip-rule:evenodd;fill:none;stroke:#D9DCE1;stroke-width:3;stroke-miterlimit:10;}
	.st48{fill:none;stroke:#FFFFFF;stroke-width:1.9258;stroke-linecap:square;stroke-miterlimit:10;}
</style><path
     class="st1"
     d="M57.923,28.008l-30.806-6.954c-0.81-0.183-1.615,0.326-1.798,1.136l-4.967,22.004  c-0.183,0.81,0.326,1.615,1.136,1.798l30.806,6.954c0.81,0.183,1.615-0.326,1.798-1.136l4.967-22.004  C59.242,28.996,58.733,28.191,57.923,28.008z"
     id="path4" /><path
     class="st0"
     d="M38.796,36.822c0.437,0.535,1.183,0.704,1.808,0.408l18.212-8.619c-0.207-0.294-0.515-0.517-0.893-0.603  l-30.806-6.954c-0.378-0.085-0.752-0.015-1.065,0.161L38.796,36.822z"
     id="path6"
     style="fill:#48b9ea;fill-opacity:1" /><path
     class="st0"
     d="M15.397,42.661c0.279-0.051,0.565-0.443,0.633-0.731c0.817-3.459,1.605-6.924,2.355-10.398  c0.053-0.246-0.175-0.695-0.404-0.836c-0.788-0.485-1.618-0.911-2.463-1.29c-0.644-0.289-0.524-0.555-0.53-1.311  c-0.029-3.558,8.985-12.6,12.474-12.474c0.756,0.027,1.022-0.114,1.311,0.53c0.379,0.845,0.805,1.675,1.29,2.463  c0.141,0.229,0.589,0.458,0.836,0.404c3.474-0.75,6.939-1.538,10.398-2.355c0.288-0.068,0.68-0.354,0.731-0.633  c0.704-3.878-1.66-8.662-9.776-8.662c-9.744,0-25.516,13.681-25.516,25.516C6.735,41.001,11.519,43.366,15.397,42.661z"
     id="path8"
     style="fill:#48b9ea;fill-opacity:1" /><circle
     class="st11"
     cx="30"
     cy="47"
     r="3"
     id="circle10"
     style="stroke:#3f3d56;stroke-opacity:1" /><path
     class="st11"
     d="M35.108,54.411C33.657,55.413,31.897,56,30,56c-4.971,0-9-4.029-9-9s4.029-9,9-9s9,4.029,9,9  c0,1.657-1.343,3-3,3s-3-1.343-3-3"
     id="path12"
     style="stroke:#3f3d56;stroke-opacity:1" /></svg>