<?xml version="1.0" encoding="utf-8"?>
<!-- Generator: Adobe Illustrator 24.1.1, SVG Export Plug-In . SVG Version: 6.00 Build 0)  -->
<svg version="1.1" xmlns="http://www.w3.org/2000/svg" xmlns:xlink="http://www.w3.org/1999/xlink" x="0px" y="0px"
	 viewBox="0 0 710.5 152.4" style="enable-background:new 0 0 710.5 152.4;" xml:space="preserve">
<style type="text/css">
	.st0{fill:url(#SVGID_1_);}
	.st1{fill:url(#SVGID_2_);}
	.st2{fill:url(#SVGID_3_);}
	.st3{fill:url(#SVGID_4_);}
	.st4{fill:url(#SVGID_5_);}
	.st5{fill:url(#SVGID_6_);}
	.st6{fill:#FFFFFF;}
	.st7{fill:#010101;}
	.st8{fill:url(#SVGID_7_);}
	.st9{fill:url(#SVGID_8_);}
	.st10{fill:url(#SVGID_9_);}
	.st11{fill:url(#SVGID_10_);}
	.st12{fill:url(#SVGID_11_);}
	.st13{fill:url(#SVGID_12_);}
</style>
<g id="Layer_2">
	<g>
		<g>
			<g>
				<path d="M11.6,48.7c5.9,2.1,11.8,4.3,17.7,6.4c9.4,3.4,18.7,6.8,28.1,10.2c2.2,0.8,4.3,1.6,6.5,2.3c1.8,0.7,2.6-2.2,0.8-2.9
					c-5.9-2.1-11.8-4.3-17.7-6.4c-9.4-3.4-18.7-6.8-28.1-10.2c-2.2-0.8-4.3-1.6-6.5-2.3C10.5,45.2,9.8,48.1,11.6,48.7L11.6,48.7z"/>
			</g>
		</g>
		<g>
			<g>
				<path d="M87.2,67.9c5.9-2.2,11.8-4.4,17.7-6.6c9.4-3.5,18.7-7,28.1-10.5c2.1-0.8,4.3-1.6,6.4-2.4c1.8-0.7,1-3.6-0.8-2.9
					c-5.9,2.2-11.8,4.4-17.7,6.6c-9.4,3.5-18.7,7-28.1,10.5c-2.1,0.8-4.3,1.6-6.4,2.4C84.6,65.7,85.4,68.6,87.2,67.9L87.2,67.9z"/>
			</g>
		</g>
		<g>
			<g>
				<path d="M148.3,44.6c-3.6,7-7.3,14.1-10.9,21.1c-5.4,10.4-10.8,20.9-16.2,31.3c-1.3,2.5-2.6,6.2-5.3,7.4c-2.1,1-5.3,0.6-7.6,0.6
					c-11.2,0-22.3,0-33.5,0c-11,0-22.1,0-33.1,0c-1.3,0-2.5,0-3.8,0c-0.2,0-0.6-0.1-0.8,0c-0.4,0.2,0.4-2,0.5,0.6
					c0,2.7-0.4,0.4-0.2,0.5c0.2,0.1,1.1-0.6,1.3-0.7c1-0.5,1.9-1,2.9-1.6c7.8-4.3,15.7-8.5,23.5-12.8c11.2-6.1,22.4-12.2,33.6-18.2
					c10.6-5.8,21.2-11.5,31.8-17.3c5.9-3.2,11.8-6.4,17.7-9.6c0.2-0.1,0.5-0.2,0.6-0.3c0,0,0.1,0,0.2-0.1c0,0,0,0,0,0c0,0,0,0,0,0
					c0,0,0,0,0,0c0.3-0.2,0-0.3-0.9-0.4c-0.6,1.8,2.3,2.6,2.9,0.8c0.7-2.2-1.5-3.9-3.5-2.9c-0.1,0.1-0.2,0.1-0.3,0.2
					c-0.7,0.3-1.3,0.7-2,1.1c-2.8,1.5-5.6,3.1-8.5,4.6c-9.8,5.3-19.7,10.7-29.5,16C95.5,71,83.7,77.4,72,83.8
					c-9.3,5-18.6,10.1-27.9,15.1c-2.4,1.3-4.8,2.6-7.1,3.9c-0.4,0.2-0.8,0.4-1.1,0.6c-2.3,1.5-1,4.5,1.5,4.6c2.9,0.1,5.8,0,8.7,0
					c5.6,0,11.3,0,16.9,0c12.8,0,25.5,0,38.3,0c3.6,0,7.3,0,10.9,0c1.2,0,2.3,0,3.4-0.3c2.7-0.7,4.7-2.6,6-5
					c4.5-8.6,8.9-17.3,13.4-25.9c5-9.7,10-19.4,15-29c0.3-0.6,0.6-1.1,0.9-1.7C151.7,44.4,149.1,42.8,148.3,44.6z"/>
			</g>
		</g>
		<g>
			<g>
				<path d="M1.8,45.4c4.2,2.3,8.4,4.6,12.7,6.8c9.9,5.3,19.8,10.7,29.7,16c11.5,6.2,23,12.4,34.5,18.6c9.1,4.9,18.1,9.8,27.2,14.7
					c2.3,1.2,4.6,2.5,6.9,3.7c0.1,0.1,1,0.7,1.2,0.6c-0.2,0.1-0.3-1.6,0.3-1c0,0-0.1,0-0.1,0c-0.2-0.1-0.7,0-0.9,0
					c-9.3,0-18.5,0-27.8,0c-12.3,0-24.7,0-37,0c-3.4,0-6.7,0-10.1,0c-1.4,0-2.7-0.1-3.9-0.9c-1.1-0.8-1.6-1.9-2.2-3
					C27.5,92,22.7,83,18,73.9c-4.9-9.3-9.7-18.5-14.6-27.8c-0.2-0.4-0.4-0.8-0.6-1.2c-0.1-0.1-0.1-0.3-0.2-0.3c0,0,0-0.1,0-0.1
					c0,0,0,0,0,0c0,0,0,0,0,0c-0.2-0.3-0.3,0-0.4,0.9C4,46.1,4.8,43.3,3,42.6c-2.2-0.8-3.9,1.5-3,3.5c0.1,0.2,0.2,0.4,0.3,0.6
					c0.6,1.2,1.3,2.4,1.9,3.6c2.5,4.7,4.9,9.4,7.4,14.1c5.8,11,11.6,22,17.4,33.1c1.2,2.3,2.2,4.7,3.7,6.9c1.6,2.4,4.2,3.6,7.1,3.6
					c1.1,0,2.1,0,3.2,0c11.1,0,22.1,0,33.2,0c11.6,0,23.3,0,34.9,0c1.4,0,2.8,0,4.2,0c1.2,0,2.5,0,3.2-1.2c1.5-2.6-1.8-3.8-3.6-4.8
					c-7.4-4-14.9-8-22.3-12.1c-11.4-6.2-22.9-12.4-34.3-18.5c-11.1-6-22.1-12-33.2-18C16.7,50,10.5,46.6,4.2,43.3
					c-0.3-0.2-0.6-0.3-0.9-0.5C1.6,41.9,0.1,44.4,1.8,45.4z"/>
			</g>
		</g>
		<g>
			<g>
				<path d="M58.8,74.3c4.3-4.7,8.6-9.5,13.5-13.6c0.6-0.5,1.1-0.9,1.7-1.3c0.2-0.2,0.5-0.3,0.7-0.5c0.1-0.1,0.2-0.1,0.3-0.2
					c0.3-0.1,0.1-0.1,0.1,0c0.1,0,0.2-0.1,0.3-0.1c0.2,0.1-0.3,0-0.1,0c0,0-0.8-0.3-0.8-0.3c-0.1,0.1,1,0.4,1.1,0.4
					c0.2,0.1-0.2-0.1,0,0c0.2,0.1,0.4,0.1,0.7,0.3c0.3,0.2,0.5,0.4,0.8,0.6c2.6,2.4,5,5,7.4,7.5c2.3,2.4,4.6,4.7,6.9,7.1
					c1.3,1.4,3.5-0.7,2.1-2.1c-4.5-4.7-9-9.3-13.6-13.9c-1.2-1.2-2.6-2.6-4.4-2.5c0.4,0.1,0.7,0.3,1.1,0.4c-1.2-1-2.6-0.4-3.8,0.4
					c-1.6,1.1-3.1,2.4-4.5,3.7c-3.3,3.1-6.4,6.3-9.5,9.6c-0.7,0.8-1.4,1.6-2.2,2.3C55.4,73.6,57.5,75.8,58.8,74.3L58.8,74.3z"/>
			</g>
		</g>
	</g>
	<g>
		<path class="st7" d="M204.6,34.4h14.7c1.8,0,3.3,1.5,3.3,3.3v92.1c0,9.9-8,18-18,18h0c-1.8,0-3.3-1.5-3.3-3.3V37.7
			C201.3,35.9,202.7,34.4,204.6,34.4z M229.1,112.5c-3.4-2.4-6-5.8-7.6-10.2l1.1-18.4c0,2.6,0.5,4.9,1.4,6.8
			c0.9,1.9,2.3,3.3,4.1,4.3c1.8,1,3.9,1.5,6.5,1.5c4,0,7.1-1.3,9.3-4c2.2-2.6,3.3-6.4,3.3-11.2V68.5c0-4.9-1.1-8.7-3.3-11.4
			c-2.2-2.7-5.3-4.1-9.3-4.1c-2.5,0-4.7,0.5-6.5,1.5c-1.8,1-3.1,2.5-4.1,4.4l-1.7,3.5L220.9,48c2.2-4.7,5-8.3,8.6-10.9
			c3.5-2.6,7.5-3.8,11.8-3.8c5.7,0,10.6,1.4,14.6,4.1c4.1,2.7,7.2,6.8,9.3,12c2.1,5.3,3.2,11.6,3.2,19v12.9c0,7.3-1.1,13.6-3.2,18.8
			c-2.1,5.2-5.2,9.2-9.3,11.9c-4.1,2.7-8.9,4.1-14.6,4.1C236.5,116.1,232.5,114.9,229.1,112.5z"/>
		<path class="st7" d="M290.2,112c-5.2-2.7-9.2-6.7-11.9-12c-2.7-5.3-4.1-11.6-4.1-19V67.9c0-7.3,1.4-13.5,4.1-18.7
			c2.7-5.2,6.7-9.2,11.9-11.9c5.2-2.7,11.5-4.1,18.8-4.1c7.3,0,13.6,1.4,18.8,4.1c5.2,2.7,9.2,6.7,11.9,11.9s4.1,11.4,4.1,18.7v13.3
			c0,7.3-1.4,13.6-4.1,18.8s-6.7,9.2-11.9,11.9c-5.2,2.7-11.5,4.1-18.8,4.1C301.7,116.1,295.4,114.8,290.2,112z M319,91.9
			c2.4-2.5,3.6-6,3.6-10.6V67.9c0-4.5-1.2-8-3.6-10.5c-2.4-2.5-5.7-3.7-10-3.7c-4.2,0-7.5,1.2-9.9,3.7c-2.4,2.5-3.5,6-3.5,10.5v13.3
			c0,4.6,1.2,8.1,3.5,10.6c2.3,2.5,5.6,3.8,9.9,3.8C313.3,95.6,316.6,94.4,319,91.9z"/>
		<path class="st7" d="M371.8,88.3c0,2,0.6,3.5,1.7,4.5c1.1,1.1,2.7,1.6,4.8,1.6l0,0c2,0,3.6,1.6,3.6,3.6v13.3c0,2-1.6,3.6-3.6,3.6
			h-7.3c-6.5,0-11.5-1.9-15.1-5.6c-3.6-3.7-5.4-9-5.4-15.8V5.7c0-2,1.6-3.6,3.6-3.6h14.1c2,0,3.6,1.6,3.6,3.6V88.3z"/>
		<path class="st7" d="M378.1,34.4h13.5c1.2,0,2.4,0.8,2.8,1.9l25.7,66.5c0.4,1,0.2,2.1-0.4,3l-9.1,11.6c-1.4,1.8-4.4,1.4-5.2-0.8
			l-30.2-78.1C374.5,36.5,376,34.4,378.1,34.4z M441.4,34.4c3.3,0,5.6,3.3,4.5,6.3l-33.6,93.1c-1.3,3.7-3,6.6-5,8.7
			c-2,2.1-4.5,3.7-7.4,4.6c-2.9,0.9-6.5,1.4-10.8,1.4l0,0c-2.6,0-4.7-2.1-4.7-4.7v-11.2c0-2.6,2.1-4.7,4.7-4.7l0,0
			c2.3,0,4.2-0.5,5.7-1.5c1.5-1,2.7-2.7,3.5-4.9L427,37.6c0.7-1.9,2.5-3.2,4.5-3.2H441.4z"/>
		<path class="st7" d="M437.4,34.4h39.5c2.3,0,4.2,1.5,4.2,3.4v11.3c0,1.9-1.9,3.4-4.2,3.4h-39.5c-2.3,0-4.2-1.5-4.2-3.4V37.8
			C433.2,35.9,435.1,34.4,437.4,34.4z M454.9,110c-3.3-3.6-4.9-8.9-4.9-15.9V16.2c0-2.9,2.4-5.3,5.3-5.3h10.7c2.9,0,5.3,2.4,5.3,5.3
			v72.5c0,2,0.4,3.5,1.2,4.5c0.8,1.1,1.9,1.6,3.4,1.6l0,0c2.9,0,5.3,2.4,5.3,5.3v9.9c0,2.9-2.4,5.3-5.3,5.3h-5.4
			C463.3,115.3,458.2,113.5,454.9,110z"/>
		<path class="st7" d="M503.8,112c-5.2-2.7-9.2-6.7-11.9-12c-2.7-5.3-4.1-11.6-4.1-19V67.9c0-7.3,1.4-13.5,4.1-18.7
			s6.7-9.2,11.9-11.9c5.2-2.7,11.5-4.1,18.8-4.1c7.3,0,13.6,1.4,18.8,4.1c5.2,2.7,9.2,6.7,11.9,11.9s4.1,11.4,4.1,18.7v13.3
			c0,7.3-1.4,13.6-4.1,18.8s-6.7,9.2-11.9,11.9c-5.2,2.7-11.5,4.1-18.8,4.1C515.3,116.1,509,114.8,503.8,112z M532.5,91.9
			c2.4-2.5,3.6-6,3.6-10.6V67.9c0-4.5-1.2-8-3.6-10.5c-2.4-2.5-5.7-3.7-10-3.7c-4.2,0-7.5,1.2-9.9,3.7c-2.4,2.5-3.5,6-3.5,10.5v13.3
			c0,4.6,1.2,8.1,3.5,10.6c2.3,2.5,5.6,3.8,9.9,3.8C526.8,95.6,530.2,94.4,532.5,91.9z"/>
		<path class="st7" d="M568.7,34.4h12c2.6,0,4.6,2.1,4.6,4.6v92.1c0,9.2-7.4,16.6-16.6,16.6h0c-2.6,0-4.6-2.1-4.6-4.6V39
			C564.1,36.5,566.2,34.4,568.7,34.4z M591.9,112.5c-3.4-2.4-6-5.8-7.6-10.2l1.1-18.4c0,2.6,0.5,4.9,1.4,6.8
			c0.9,1.9,2.3,3.3,4.1,4.3c1.8,1,3.9,1.5,6.5,1.5c4,0,7.1-1.3,9.3-4c2.2-2.6,3.3-6.4,3.3-11.2V68.5c0-4.9-1.1-8.7-3.3-11.4
			c-2.2-2.7-5.3-4.1-9.3-4.1c-2.5,0-4.7,0.5-6.5,1.5c-1.8,1-3.1,2.5-4.1,4.4c-0.9,1.9-1.4,4.2-1.4,7L583.7,48
			c2.2-4.7,5-8.3,8.6-10.9c3.5-2.6,7.5-3.8,11.8-3.8c5.7,0,10.6,1.4,14.6,4.1c4.1,2.7,7.2,6.8,9.3,12c2.1,5.3,3.2,11.6,3.2,19v12.9
			c0,7.3-1.1,13.6-3.2,18.8c-2.1,5.2-5.2,9.2-9.3,11.9c-4.1,2.7-8.9,4.1-14.6,4.1C599.3,116.1,595.3,114.9,591.9,112.5z"/>
		<path class="st7" d="M655.6,111.9c-5.5-2.8-9.7-6.9-12.6-12.3c-2.9-5.4-4.3-11.9-4.3-19.5V71c0-8,1.4-14.8,4.2-20.4
			c2.8-5.6,6.8-9.9,12.1-12.9c5.3-2.9,11.7-4.4,19.2-4.4c7,0,13.1,1.8,18.1,5.3c5,3.5,8.8,8.6,11.4,15.3c2.6,6.7,3.9,14.8,3.9,24.3
			v3.6c0,0.9-0.7,1.7-1.7,1.7h-51.8c-0.9,0-1.7-0.7-1.7-1.7v-11c0-0.9,0.7-1.7,1.7-1.7h32.2c1,0,1.8-0.9,1.6-1.9v0
			c-0.6-4.7-2-8.3-4.4-10.8c-2.4-2.5-5.5-3.8-9.4-3.8c-5.1,0-9.1,1.5-11.9,4.6c-2.8,3.1-4.2,7.4-4.2,13v10.2c0,5.5,1.5,9.7,4.6,12.7
			c3.1,3,7.4,4.5,12.9,4.5c2.8,0,5.7-0.5,8.5-1.5c2.4-0.9,4.6-2,6.6-3.5c0.6-0.5,1.5-0.4,2.1,0.1l11.5,10.2c0.7,0.7,0.8,1.8,0,2.5
			c-3.8,3.2-8.1,5.8-12.7,7.6c-5.2,2.1-10.5,3.1-15.8,3.1C667.8,116.1,661.1,114.7,655.6,111.9z"/>
	</g>
</g>
<g id="Layer_1">
</g>
<g id="Layer_3">
</g>
<g id="Layer_4">
</g>
</svg>
