<?xml version="1.0" encoding="utf-8"?>
<!-- Generator: Adobe Illustrator 24.1.1, SVG Export Plug-In . SVG Version: 6.00 Build 0)  -->
<svg version="1.1" xmlns="http://www.w3.org/2000/svg" xmlns:xlink="http://www.w3.org/1999/xlink" x="0px" y="0px"
	 viewBox="0 0 710.5 150.7" style="enable-background:new 0 0 710.5 150.7;" xml:space="preserve">
<style type="text/css">
	.st0{fill:url(#SVGID_1_);}
	.st1{fill:url(#SVGID_2_);}
	.st2{fill:url(#SVGID_3_);}
	.st3{fill:url(#SVGID_4_);}
	.st4{fill:url(#SVGID_5_);}
	.st5{fill:url(#SVGID_6_);}
	.st6{fill:#FFFFFF;}
	.st7{fill:#010101;}
	.st8{fill:url(#SVGID_7_);}
	.st9{fill:url(#SVGID_8_);}
	.st10{fill:url(#SVGID_9_);}
	.st11{fill:url(#SVGID_10_);}
	.st12{fill:url(#SVGID_11_);}
	.st13{fill:url(#SVGID_12_);}
</style>
<g id="Layer_2">
</g>
<g id="Layer_1">
	<g>
		<g>
			<linearGradient id="SVGID_1_" gradientUnits="userSpaceOnUse" x1="29.0986" y1="52.012" x2="81.436" y2="79.1927">
				<stop  offset="9.483465e-07" style="stop-color:#355D8E"/>
				<stop  offset="1" style="stop-color:#45C8F5"/>
			</linearGradient>
			<path class="st0" d="M76.2,83.2L11.3,48.1c-1-0.6-0.3-2.1,0.8-1.7l64.1,23.3V83.2z"/>
		</g>
		<linearGradient id="SVGID_2_" gradientUnits="userSpaceOnUse" x1="112.2956" y1="55.8683" x2="81.9342" y2="75.9647">
			<stop  offset="9.483465e-07" style="stop-color:#355D8E"/>
			<stop  offset="1" style="stop-color:#45C8F5"/>
		</linearGradient>
		<path class="st1" d="M139.9,47.9L76.1,82.7L76,69.6l63.2-23.5C140.2,45.8,140.9,47.3,139.9,47.9z"/>
		<linearGradient id="SVGID_3_" gradientUnits="userSpaceOnUse" x1="45.8947" y1="70.9066" x2="75.6498" y2="70.9066">
			<stop  offset="9.483465e-07" style="stop-color:#4B80C2"/>
			<stop  offset="1" style="stop-color:#45C8F5"/>
		</linearGradient>
		<path class="st2" d="M73.7,57.1l-27.1,27c-0.4,0.4-0.6,0.9-0.7,1.4h29.8V56.4C74.9,56.3,74.2,56.6,73.7,57.1z"/>
		<linearGradient id="SVGID_4_" gradientUnits="userSpaceOnUse" x1="75.6498" y1="70.91" x2="105.0392" y2="70.91">
			<stop  offset="9.483465e-07" style="stop-color:#355D8E"/>
			<stop  offset="1" style="stop-color:#45C8F5"/>
		</linearGradient>
		<path class="st3" d="M104.3,84.1l-27.1-27c-0.5-0.5-1-0.7-1.6-0.7v29.1H105C105,84.9,104.7,84.5,104.3,84.1z"/>
		<g>
			<linearGradient id="SVGID_5_" gradientUnits="userSpaceOnUse" x1="180.2539" y1="47.4406" x2="83.7809" y2="100.4715">
				<stop  offset="4.741732e-07" style="stop-color:#4B80C2"/>
				<stop  offset="0.2713" style="stop-color:#4A94D0"/>
				<stop  offset="0.7631" style="stop-color:#48B8E9"/>
				<stop  offset="1" style="stop-color:#45C8F5"/>
			</linearGradient>
			<path class="st4" d="M149.6,44.5l-29.5,57.1c-1.3,2.5-3.9,4.1-6.7,4.1H37.2c-1,0-1.3-1.3-0.4-1.8l111.6-60.6
				C149.2,42.8,150.1,43.6,149.6,44.5z"/>
		</g>
		<g>
			<linearGradient id="SVGID_6_" gradientUnits="userSpaceOnUse" x1="88.9974" y1="114.4459" x2="6.4199" y2="56.6246">
				<stop  offset="9.483465e-07" style="stop-color:#4B80C2"/>
				<stop  offset="1" style="stop-color:#45C8F5"/>
			</linearGradient>
			<path class="st5" d="M2.7,43.2l112.1,60.6c0.9,0.5,0.5,1.8-0.4,1.8H37.4c-2.4,0-4.7-1.4-5.8-3.5L1.4,44.5
				C1,43.7,1.9,42.8,2.7,43.2z"/>
		</g>
	</g>
	<g>
		<path class="st7" d="M204.7,33.5h14.7c1.8,0,3.3,1.5,3.3,3.3v92.1c0,9.9-8,18-18,18h0c-1.8,0-3.3-1.5-3.3-3.3V36.8
			C201.4,35,202.8,33.5,204.7,33.5z M229.1,111.7c-3.4-2.4-6-5.8-7.6-10.2l1.1-18.4c0,2.6,0.5,4.9,1.4,6.8c0.9,1.9,2.3,3.3,4.1,4.3
			c1.8,1,3.9,1.5,6.5,1.5c4,0,7.1-1.3,9.3-4c2.2-2.6,3.3-6.4,3.3-11.2V67.6c0-4.9-1.1-8.7-3.3-11.4c-2.2-2.7-5.3-4.1-9.3-4.1
			c-2.5,0-4.7,0.5-6.5,1.5c-1.8,1-3.1,2.5-4.1,4.4l-1.7,3.5L221,47.1c2.2-4.7,5-8.3,8.6-10.9c3.5-2.6,7.5-3.8,11.8-3.8
			c5.7,0,10.6,1.4,14.6,4.1c4.1,2.7,7.2,6.8,9.3,12c2.1,5.3,3.2,11.6,3.2,19v12.9c0,7.3-1.1,13.6-3.2,18.8
			c-2.1,5.2-5.2,9.2-9.3,11.9c-4.1,2.7-8.9,4.1-14.6,4.1C236.6,115.3,232.6,114.1,229.1,111.7z"/>
		<path class="st7" d="M290.3,111.2c-5.2-2.7-9.2-6.7-11.9-12c-2.7-5.3-4.1-11.6-4.1-19V67.1c0-7.3,1.4-13.5,4.1-18.7
			s6.7-9.2,11.9-11.9c5.2-2.7,11.5-4.1,18.8-4.1c7.3,0,13.6,1.4,18.8,4.1c5.2,2.7,9.2,6.7,11.9,11.9c2.7,5.2,4.1,11.4,4.1,18.7v13.3
			c0,7.3-1.4,13.6-4.1,18.8c-2.7,5.2-6.7,9.2-11.9,11.9c-5.2,2.7-11.5,4.1-18.8,4.1C301.8,115.3,295.5,113.9,290.3,111.2z M319.1,91
			c2.4-2.5,3.6-6,3.6-10.6V67.1c0-4.5-1.2-8-3.6-10.5c-2.4-2.5-5.7-3.7-10-3.7c-4.2,0-7.5,1.2-9.9,3.7c-2.4,2.5-3.5,6-3.5,10.5v13.3
			c0,4.6,1.2,8.1,3.5,10.6c2.3,2.5,5.6,3.8,9.9,3.8C313.4,94.8,316.7,93.5,319.1,91z"/>
		<path class="st7" d="M371.9,87.5c0,2,0.6,3.5,1.7,4.5c1.1,1.1,2.7,1.6,4.8,1.6l0,0c2,0,3.6,1.6,3.6,3.6v13.3c0,2-1.6,3.6-3.6,3.6
			H371c-6.5,0-11.5-1.9-15.1-5.6s-5.4-9-5.4-15.8V4.8c0-2,1.6-3.6,3.6-3.6h14.1c2,0,3.6,1.6,3.6,3.6V87.5z"/>
		<path class="st7" d="M378.2,33.5h13.5c1.2,0,2.4,0.8,2.8,1.9l25.7,66.5c0.4,1,0.2,2.1-0.4,3l-9.1,11.6c-1.4,1.8-4.4,1.4-5.2-0.8
			l-30.2-78.1C374.6,35.7,376.1,33.5,378.2,33.5z M441.5,33.5c3.3,0,5.6,3.3,4.5,6.3L412.4,133c-1.3,3.7-3,6.6-5,8.7
			c-2,2.1-4.5,3.7-7.4,4.6c-2.9,0.9-6.5,1.4-10.8,1.4l0,0c-2.6,0-4.7-2.1-4.7-4.7v-11.2c0-2.6,2.1-4.7,4.7-4.7l0,0
			c2.3,0,4.2-0.5,5.7-1.5c1.5-1,2.7-2.7,3.5-4.9l28.8-83.9c0.7-1.9,2.5-3.2,4.5-3.2H441.5z"/>
		<path class="st7" d="M437.5,33.5H477c2.3,0,4.2,1.5,4.2,3.4v11.3c0,1.9-1.9,3.4-4.2,3.4h-39.5c-2.3,0-4.2-1.5-4.2-3.4V37
			C433.3,35.1,435.2,33.5,437.5,33.5z M455,109.1c-3.3-3.6-4.9-8.9-4.9-15.9V15.4c0-2.9,2.4-5.3,5.3-5.3H466c2.9,0,5.3,2.4,5.3,5.3
			v72.5c0,2,0.4,3.5,1.2,4.5c0.8,1.1,1.9,1.6,3.4,1.6l0,0c2.9,0,5.3,2.4,5.3,5.3v9.9c0,2.9-2.4,5.3-5.3,5.3h-5.4
			C463.4,114.5,458.3,112.7,455,109.1z"/>
		<path class="st7" d="M503.9,111.2c-5.2-2.7-9.2-6.7-11.9-12c-2.7-5.3-4.1-11.6-4.1-19V67.1c0-7.3,1.4-13.5,4.1-18.7
			c2.7-5.2,6.7-9.2,11.9-11.9c5.2-2.7,11.5-4.1,18.8-4.1c7.3,0,13.6,1.4,18.8,4.1c5.2,2.7,9.2,6.7,11.9,11.9s4.1,11.4,4.1,18.7v13.3
			c0,7.3-1.4,13.6-4.1,18.8c-2.7,5.2-6.7,9.2-11.9,11.9c-5.2,2.7-11.5,4.1-18.8,4.1C515.4,115.3,509.1,113.9,503.9,111.2z M532.6,91
			c2.4-2.5,3.6-6,3.6-10.6V67.1c0-4.5-1.2-8-3.6-10.5c-2.4-2.5-5.7-3.7-10-3.7c-4.2,0-7.5,1.2-9.9,3.7c-2.4,2.5-3.5,6-3.5,10.5v13.3
			c0,4.6,1.2,8.1,3.5,10.6c2.3,2.5,5.6,3.8,9.9,3.8C526.9,94.8,530.3,93.5,532.6,91z"/>
		<path class="st7" d="M568.8,33.5h12c2.6,0,4.6,2.1,4.6,4.6v92.1c0,9.2-7.4,16.6-16.6,16.6l0,0c-2.6,0-4.6-2.1-4.6-4.6v-104
			C564.2,35.6,566.2,33.5,568.8,33.5z M591.9,111.7c-3.4-2.4-6-5.8-7.6-10.2l1.1-18.4c0,2.6,0.5,4.9,1.4,6.8
			c0.9,1.9,2.3,3.3,4.1,4.3c1.8,1,3.9,1.5,6.5,1.5c4,0,7.1-1.3,9.3-4c2.2-2.6,3.3-6.4,3.3-11.2V67.6c0-4.9-1.1-8.7-3.3-11.4
			c-2.2-2.7-5.3-4.1-9.3-4.1c-2.5,0-4.7,0.5-6.5,1.5c-1.8,1-3.1,2.5-4.1,4.4c-0.9,1.9-1.4,4.2-1.4,7l-1.6-17.9
			c2.2-4.7,5-8.3,8.6-10.9c3.5-2.6,7.5-3.8,11.8-3.8c5.7,0,10.6,1.4,14.6,4.1c4.1,2.7,7.2,6.8,9.3,12c2.1,5.3,3.2,11.6,3.2,19v12.9
			c0,7.3-1.1,13.6-3.2,18.8c-2.1,5.2-5.2,9.2-9.3,11.9c-4.1,2.7-8.9,4.1-14.6,4.1C599.4,115.3,595.4,114.1,591.9,111.7z"/>
		<path class="st7" d="M655.7,111c-5.5-2.8-9.7-6.9-12.6-12.3c-2.9-5.4-4.3-11.9-4.3-19.5v-9.1c0-8,1.4-14.8,4.2-20.4
			c2.8-5.6,6.8-9.9,12.1-12.9c5.3-2.9,11.7-4.4,19.2-4.4c7,0,13.1,1.8,18.1,5.3c5,3.5,8.8,8.6,11.4,15.3c2.6,6.7,3.9,14.8,3.9,24.3
			v3.6c0,0.9-0.7,1.7-1.7,1.7h-51.8c-0.9,0-1.7-0.7-1.7-1.7v-11c0-0.9,0.7-1.7,1.7-1.7h32.2c1,0,1.8-0.9,1.6-1.9l0,0
			c-0.6-4.7-2-8.3-4.4-10.8c-2.4-2.5-5.5-3.8-9.4-3.8c-5.1,0-9.1,1.5-11.9,4.6c-2.8,3.1-4.2,7.4-4.2,13v10.2c0,5.5,1.5,9.7,4.6,12.7
			c3.1,3,7.4,4.5,12.9,4.5c2.8,0,5.7-0.5,8.5-1.5c2.4-0.9,4.6-2,6.6-3.5c0.6-0.5,1.5-0.4,2.1,0.1l11.5,10.2c0.7,0.7,0.8,1.8,0,2.5
			c-3.8,3.2-8.1,5.8-12.7,7.6c-5.2,2.1-10.5,3.1-15.8,3.1C667.9,115.3,661.2,113.9,655.7,111z"/>
	</g>
</g>
<g id="Layer_3">
</g>
<g id="Layer_4">
</g>
</svg>
