<?xml version="1.0" standalone="no"?>
<!DOCTYPE svg PUBLIC "-//W3C//DTD SVG 20010904//EN"
 "http://www.w3.org/TR/2001/REC-SVG-20010904/DTD/svg10.dtd">
<svg version="1.0" xmlns="http://www.w3.org/2000/svg"
 width="700.000000pt" height="700.000000pt" viewBox="0 0 700.000000 700.000000"
 preserveAspectRatio="xMidYMid meet">
<metadata>
Created by potrace 1.14, written by Peter Selinger 2001-2017
</metadata>
<g transform="translate(0.000000,700.000000) scale(0.100000,-0.100000)"
fill="#000000" stroke="none">
<path d="M406 4795 c-18 -19 -14 -33 48 -149 24 -44 71 -135 106 -201 34 -66
79 -151 100 -190 20 -38 65 -124 100 -190 34 -66 84 -160 110 -210 26 -49 76
-144 110 -210 69 -132 143 -273 200 -380 21 -38 68 -128 105 -200 37 -71 87
-166 110 -210 24 -44 69 -129 100 -190 192 -368 200 -382 253 -418 89 -61 -19
-58 1772 -55 l1635 3 57 29 c85 43 127 94 213 261 43 83 106 204 140 270 34
66 106 206 160 310 54 105 123 240 155 300 32 61 106 205 165 320 59 116 136
264 170 330 34 66 96 185 137 265 42 80 114 221 162 313 48 92 86 175 84 184
-7 35 -35 39 -90 11 -76 -39 -239 -127 -265 -144 -28 -17 -33 -18 -33 0 0 28
-29 40 -68 29 -20 -6 -298 -108 -617 -227 -319 -120 -708 -265 -865 -322 -157
-58 -294 -109 -305 -114 -11 -4 -38 -15 -60 -23 -97 -39 -340 -127 -350 -127
-6 0 -91 81 -190 181 -191 192 -236 225 -286 207 -15 -5 -112 -93 -214 -194
-103 -101 -191 -184 -196 -184 -11 0 -367 128 -474 170 -11 5 -141 52 -290
105 -148 54 -409 148 -580 210 -765 278 -870 316 -889 313 -11 -2 -26 -13 -32
-26 -10 -20 -13 -21 -24 -7 -7 8 -16 15 -20 15 -4 0 -43 19 -86 43 -233 128
-232 128 -258 102z"/>
</g>
</svg>
