<?xml version="1.0" encoding="UTF-8"?>
<!-- Created with Inkscape (http://www.inkscape.org/) -->
<svg width="39.275mm" height="16.562mm" version="1.1" viewBox="0 0 39.275 16.562" xmlns="http://www.w3.org/2000/svg" xmlns:cc="http://creativecommons.org/ns#" xmlns:dc="http://purl.org/dc/elements/1.1/" xmlns:rdf="http://www.w3.org/1999/02/22-rdf-syntax-ns#">
 <metadata>
  <rdf:RDF>
   <cc:Work rdf:about="">
    <dc:format>image/svg+xml</dc:format>
    <dc:type rdf:resource="http://purl.org/dc/dcmitype/StillImage"/>
    <dc:title/>
   </cc:Work>
  </rdf:RDF>
 </metadata>
 <g transform="translate(-55.953 -134.22)">
  <g transform="matrix(.26458 0 0 .26458 55.609 122.82)">
   <linearGradient id="SVGID_2_" x1="112.3" x2="81.934" y1="55.868" y2="75.965" gradientUnits="userSpaceOnUse">
    <stop stop-color="#355D8E" offset="9.4835e-7"/>
    <stop stop-color="#45C8F5" offset="1"/>
   </linearGradient>
   <linearGradient id="SVGID_3_" x1="45.895" x2="75.65" y1="70.907" y2="70.907" gradientUnits="userSpaceOnUse">
    <stop stop-color="#4B80C2" offset="9.4835e-7"/>
    <stop stop-color="#45C8F5" offset="1"/>
   </linearGradient>
   <linearGradient id="SVGID_4_" x1="75.65" x2="105.04" y1="70.91" y2="70.91" gradientUnits="userSpaceOnUse">
    <stop stop-color="#355D8E" offset="9.4835e-7"/>
    <stop stop-color="#45C8F5" offset="1"/>
   </linearGradient>
   <linearGradient id="SVGID_1_" x1="29.099" x2="81.436" y1="52.012" y2="79.193" gradientUnits="userSpaceOnUse">
    <stop stop-color="#355D8E" offset="9.4835e-7"/>
    <stop stop-color="#45C8F5" offset="1"/>
   </linearGradient>
   <path class="st0" d="m76.2 83.2-64.9-35.1c-1-0.6-0.3-2.1 0.8-1.7l64.1 23.3z" fill="url(#SVGID_1_)"/>
   <path class="st1" d="m139.9 47.9-63.8 34.8-0.1-13.1 63.2-23.5c1-0.3 1.7 1.2 0.7 1.8z" fill="url(#SVGID_2_)"/>
   <path class="st2" d="m73.7 57.1-27.1 27c-0.4 0.4-0.6 0.9-0.7 1.4h29.8v-29.1c-0.8-0.1-1.5 0.2-2 0.7z" fill="url(#SVGID_3_)"/>
   <path class="st3" d="m104.3 84.1-27.1-27c-0.5-0.5-1-0.7-1.6-0.7v29.1h29.4c0-0.6-0.3-1-0.7-1.4z" fill="url(#SVGID_4_)"/>
   <linearGradient id="SVGID_5_" x1="180.25" x2="83.781" y1="47.441" y2="100.47" gradientUnits="userSpaceOnUse">
    <stop stop-color="#4B80C2" offset="4.7417e-7"/>
    <stop stop-color="#4A94D0" offset=".2713"/>
    <stop stop-color="#48B8E9" offset=".7631"/>
    <stop stop-color="#45C8F5" offset="1"/>
   </linearGradient>
   <path class="st4" d="m149.6 44.5-29.5 57.1c-1.3 2.5-3.9 4.1-6.7 4.1h-76.2c-1 0-1.3-1.3-0.4-1.8l111.6-60.6c0.8-0.5 1.7 0.3 1.2 1.2z" fill="url(#SVGID_5_)"/>
   <linearGradient id="SVGID_6_" x1="88.997" x2="6.4199" y1="114.45" y2="56.625" gradientUnits="userSpaceOnUse">
    <stop stop-color="#4B80C2" offset="9.4835e-7"/>
    <stop stop-color="#45C8F5" offset="1"/>
   </linearGradient>
   <path class="st5" d="m2.7 43.2 112.1 60.6c0.9 0.5 0.5 1.8-0.4 1.8h-77c-2.4 0-4.7-1.4-5.8-3.5l-30.2-57.6c-0.4-0.8 0.5-1.7 1.3-1.3z" fill="url(#SVGID_6_)"/>
  </g>
 </g>
 <style type="text/css">.st0{fill:url(#SVGID_1_);}
	.st1{fill:url(#SVGID_2_);}
	.st2{fill:url(#SVGID_3_);}
	.st3{fill:url(#SVGID_4_);}
	.st4{fill:url(#SVGID_5_);}
	.st5{fill:url(#SVGID_6_);}
	.st6{fill:#FFFFFF;}
	.st7{fill:#010101;}
	.st8{fill:url(#SVGID_7_);}
	.st9{fill:url(#SVGID_8_);}
	.st10{fill:url(#SVGID_9_);}
	.st11{fill:url(#SVGID_10_);}
	.st12{fill:url(#SVGID_11_);}
	.st13{fill:url(#SVGID_12_);}</style>
</svg>
