<?xml version="1.0" encoding="utf-8"?>
<!-- Generator: Adobe Illustrator 24.1.1, SVG Export Plug-In . SVG Version: 6.00 Build 0)  -->
<svg version="1.1" xmlns="http://www.w3.org/2000/svg" xmlns:xlink="http://www.w3.org/1999/xlink" x="0px" y="0px"
	 viewBox="0 0 713.9 151.6" style="enable-background:new 0 0 713.9 151.6;" xml:space="preserve">
<style type="text/css">
	.st0{fill:url(#SVGID_1_);}
	.st1{fill:url(#SVGID_2_);}
	.st2{fill:url(#SVGID_3_);}
	.st3{fill:url(#SVGID_4_);}
	.st4{fill:url(#SVGID_5_);}
	.st5{fill:url(#SVGID_6_);}
	.st6{fill:#FFFFFF;}
	.st7{fill:#010101;}
	.st8{fill:url(#SVGID_7_);}
	.st9{fill:url(#SVGID_8_);}
	.st10{fill:url(#SVGID_9_);}
	.st11{fill:url(#SVGID_10_);}
	.st12{fill:url(#SVGID_11_);}
	.st13{fill:url(#SVGID_12_);}
</style>
<g id="Layer_2">
	<g>
		<g>
			<linearGradient id="SVGID_1_" gradientUnits="userSpaceOnUse" x1="29.5497" y1="52.2885" x2="81.887" y2="79.4692">
				<stop  offset="9.483465e-07" style="stop-color:#355D8E"/>
				<stop  offset="1" style="stop-color:#45C8F5"/>
			</linearGradient>
			<path class="st0" d="M76.6,83.5L11.7,48.4c-1-0.6-0.3-2.1,0.8-1.7L76.6,70V83.5z"/>
		</g>
		<linearGradient id="SVGID_2_" gradientUnits="userSpaceOnUse" x1="112.7466" y1="56.1448" x2="82.3852" y2="76.2412">
			<stop  offset="9.483465e-07" style="stop-color:#355D8E"/>
			<stop  offset="1" style="stop-color:#45C8F5"/>
		</linearGradient>
		<path class="st1" d="M140.4,48.1L76.6,83l-0.1-13.1l63.2-23.5C140.7,46,141.4,47.6,140.4,48.1z"/>
		<linearGradient id="SVGID_3_" gradientUnits="userSpaceOnUse" x1="46.3457" y1="71.1832" x2="76.1009" y2="71.1832">
			<stop  offset="9.483465e-07" style="stop-color:#4B80C2"/>
			<stop  offset="1" style="stop-color:#45C8F5"/>
		</linearGradient>
		<path class="st2" d="M74.1,57.4l-27.1,27c-0.4,0.4-0.6,0.9-0.7,1.4h29.8V56.6C75.4,56.6,74.7,56.8,74.1,57.4z"/>
		<linearGradient id="SVGID_4_" gradientUnits="userSpaceOnUse" x1="76.1009" y1="71.1866" x2="105.4902" y2="71.1866">
			<stop  offset="9.483465e-07" style="stop-color:#355D8E"/>
			<stop  offset="1" style="stop-color:#45C8F5"/>
		</linearGradient>
		<path class="st3" d="M104.8,84.3l-27.1-27c-0.5-0.5-1-0.7-1.6-0.7v29.1h29.4C105.4,85.2,105.2,84.7,104.8,84.3z"/>
		<g>
			<linearGradient id="SVGID_5_" gradientUnits="userSpaceOnUse" x1="180.7049" y1="47.7172" x2="84.2319" y2="100.748">
				<stop  offset="4.741732e-07" style="stop-color:#4B80C2"/>
				<stop  offset="0.2713" style="stop-color:#4A94D0"/>
				<stop  offset="0.7631" style="stop-color:#48B8E9"/>
				<stop  offset="1" style="stop-color:#45C8F5"/>
			</linearGradient>
			<path class="st4" d="M150.1,44.7l-29.5,57.1c-1.3,2.5-3.9,4.1-6.7,4.1H37.6c-1,0-1.3-1.3-0.4-1.8l111.6-60.6
				C149.6,43,150.5,43.9,150.1,44.7z"/>
		</g>
		<g>
			<linearGradient id="SVGID_6_" gradientUnits="userSpaceOnUse" x1="89.4484" y1="114.7225" x2="6.871" y2="56.9012">
				<stop  offset="9.483465e-07" style="stop-color:#4B80C2"/>
				<stop  offset="1" style="stop-color:#45C8F5"/>
			</linearGradient>
			<path class="st5" d="M3.1,43.5l112.1,60.6c0.9,0.5,0.5,1.8-0.4,1.8H37.9c-2.4,0-4.7-1.4-5.8-3.5L1.8,44.7
				C1.4,43.9,2.3,43.1,3.1,43.5z"/>
		</g>
	</g>
	<g>
		<path class="st6" d="M205.1,33.8h14.7c1.8,0,3.3,1.5,3.3,3.3v92.1c0,9.9-8,18-18,18h0c-1.8,0-3.3-1.5-3.3-3.3V37.1
			C201.8,35.3,203.3,33.8,205.1,33.8z M229.6,111.9c-3.4-2.4-6-5.8-7.6-10.2l1.1-18.4c0,2.6,0.5,4.9,1.4,6.8
			c0.9,1.9,2.3,3.3,4.1,4.3c1.8,1,3.9,1.5,6.5,1.5c4,0,7.1-1.3,9.3-4c2.2-2.6,3.3-6.4,3.3-11.2V67.9c0-4.9-1.1-8.7-3.3-11.4
			c-2.2-2.7-5.3-4.1-9.3-4.1c-2.5,0-4.7,0.5-6.5,1.5c-1.8,1-3.1,2.5-4.1,4.4l-1.7,3.5l-1.3-14.4c2.2-4.7,5-8.3,8.6-10.9
			c3.5-2.6,7.5-3.8,11.8-3.8c5.7,0,10.6,1.4,14.6,4.1c4.1,2.7,7.2,6.8,9.3,12c2.1,5.3,3.2,11.6,3.2,19v12.9c0,7.3-1.1,13.6-3.2,18.8
			c-2.1,5.2-5.2,9.2-9.3,11.9c-4.1,2.7-8.9,4.1-14.6,4.1C237.1,115.5,233,114.3,229.6,111.9z"/>
		<path class="st6" d="M290.8,111.4c-5.2-2.7-9.2-6.7-11.9-12c-2.7-5.3-4.1-11.6-4.1-19V67.3c0-7.3,1.4-13.5,4.1-18.7
			s6.7-9.2,11.9-11.9c5.2-2.7,11.5-4.1,18.8-4.1c7.3,0,13.6,1.4,18.8,4.1c5.2,2.7,9.2,6.7,11.9,11.9s4.1,11.4,4.1,18.7v13.3
			c0,7.3-1.4,13.6-4.1,18.8s-6.7,9.2-11.9,11.9c-5.2,2.7-11.5,4.1-18.8,4.1C302.2,115.5,296,114.2,290.8,111.4z M319.5,91.3
			c2.4-2.5,3.6-6,3.6-10.6V67.3c0-4.5-1.2-8-3.6-10.5c-2.4-2.5-5.7-3.7-10-3.7c-4.2,0-7.5,1.2-9.9,3.7c-2.4,2.5-3.5,6-3.5,10.5v13.3
			c0,4.6,1.2,8.1,3.5,10.6c2.3,2.5,5.6,3.8,9.9,3.8C313.8,95.1,317.1,93.8,319.5,91.3z"/>
		<path class="st6" d="M372.3,87.8c0,2,0.6,3.5,1.7,4.5c1.1,1.1,2.7,1.6,4.8,1.6l0,0c2,0,3.6,1.6,3.6,3.6v13.3c0,2-1.6,3.6-3.6,3.6
			h-7.3c-6.5,0-11.5-1.9-15.1-5.6c-3.6-3.7-5.4-9-5.4-15.8V5.1c0-2,1.6-3.6,3.6-3.6h14.1c2,0,3.6,1.6,3.6,3.6V87.8z"/>
		<path class="st6" d="M378.6,33.8h13.5c1.2,0,2.4,0.8,2.8,1.9l25.7,66.5c0.4,1,0.2,2.1-0.4,3l-9.1,11.6c-1.4,1.8-4.4,1.4-5.2-0.8
			l-30.2-78.1C375.1,35.9,376.5,33.8,378.6,33.8z M441.9,33.8c3.3,0,5.6,3.3,4.5,6.3l-33.6,93.1c-1.3,3.7-3,6.6-5,8.7
			c-2,2.1-4.5,3.7-7.4,4.6c-2.9,0.9-6.5,1.4-10.8,1.4l0,0c-2.6,0-4.7-2.1-4.7-4.7v-11.2c0-2.6,2.1-4.7,4.7-4.7l0,0
			c2.3,0,4.2-0.5,5.7-1.5c1.5-1,2.7-2.7,3.5-4.9L427.5,37c0.7-1.9,2.5-3.2,4.5-3.2H441.9z"/>
		<path class="st6" d="M438,33.8h39.5c2.3,0,4.2,1.5,4.2,3.4v11.3c0,1.9-1.9,3.4-4.2,3.4H438c-2.3,0-4.2-1.5-4.2-3.4V37.3
			C433.8,35.4,435.7,33.8,438,33.8z M455.4,109.4c-3.3-3.6-4.9-8.9-4.9-15.9V15.7c0-2.9,2.4-5.3,5.3-5.3h10.7c2.9,0,5.3,2.4,5.3,5.3
			v72.5c0,2,0.4,3.5,1.2,4.5c0.8,1.1,1.9,1.6,3.4,1.6l0,0c2.9,0,5.3,2.4,5.3,5.3v9.9c0,2.9-2.4,5.3-5.3,5.3h-5.4
			C463.9,114.8,458.7,113,455.4,109.4z"/>
		<path class="st6" d="M504.3,111.4c-5.2-2.7-9.2-6.7-11.9-12c-2.7-5.3-4.1-11.6-4.1-19V67.3c0-7.3,1.4-13.5,4.1-18.7
			s6.7-9.2,11.9-11.9c5.2-2.7,11.5-4.1,18.8-4.1c7.3,0,13.6,1.4,18.8,4.1c5.2,2.7,9.2,6.7,11.9,11.9s4.1,11.4,4.1,18.7v13.3
			c0,7.3-1.4,13.6-4.1,18.8s-6.7,9.2-11.9,11.9c-5.2,2.7-11.5,4.1-18.8,4.1C515.8,115.5,509.5,114.2,504.3,111.4z M533.1,91.3
			c2.4-2.5,3.6-6,3.6-10.6V67.3c0-4.5-1.2-8-3.6-10.5c-2.4-2.5-5.7-3.7-10-3.7c-4.2,0-7.5,1.2-9.9,3.7c-2.4,2.5-3.5,6-3.5,10.5v13.3
			c0,4.6,1.2,8.1,3.5,10.6c2.3,2.5,5.6,3.8,9.9,3.8C527.4,95.1,530.7,93.8,533.1,91.3z"/>
		<path class="st6" d="M569.3,33.8h12c2.6,0,4.6,2.1,4.6,4.6v92.1c0,9.2-7.4,16.6-16.6,16.6h0c-2.6,0-4.6-2.1-4.6-4.6v-104
			C564.6,35.9,566.7,33.8,569.3,33.8z M592.4,111.9c-3.4-2.4-6-5.8-7.6-10.2l1.1-18.4c0,2.6,0.5,4.9,1.4,6.8
			c0.9,1.9,2.3,3.3,4.1,4.3c1.8,1,3.9,1.5,6.5,1.5c4,0,7.1-1.3,9.3-4c2.2-2.6,3.3-6.4,3.3-11.2V67.9c0-4.9-1.1-8.7-3.3-11.4
			c-2.2-2.7-5.3-4.1-9.3-4.1c-2.5,0-4.7,0.5-6.5,1.5c-1.8,1-3.1,2.5-4.1,4.4c-0.9,1.9-1.4,4.2-1.4,7l-1.6-17.9
			c2.2-4.7,5-8.3,8.6-10.9c3.5-2.6,7.5-3.8,11.8-3.8c5.7,0,10.6,1.4,14.6,4.1c4.1,2.7,7.2,6.8,9.3,12c2.1,5.3,3.2,11.6,3.2,19v12.9
			c0,7.3-1.1,13.6-3.2,18.8c-2.1,5.2-5.2,9.2-9.3,11.9c-4.1,2.7-8.9,4.1-14.6,4.1C599.9,115.5,595.8,114.3,592.4,111.9z"/>
		<path class="st6" d="M656.2,111.3c-5.5-2.8-9.7-6.9-12.6-12.3c-2.9-5.4-4.3-11.9-4.3-19.5v-9.1c0-8,1.4-14.8,4.2-20.4
			c2.8-5.6,6.8-9.9,12.1-12.9c5.3-2.9,11.7-4.4,19.2-4.4c7,0,13.1,1.8,18.1,5.3c5,3.5,8.8,8.6,11.4,15.3c2.6,6.7,3.9,14.8,3.9,24.3
			v3.6c0,0.9-0.7,1.7-1.7,1.7h-51.8c-0.9,0-1.7-0.7-1.7-1.7v-11c0-0.9,0.7-1.7,1.7-1.7h32.2c1,0,1.8-0.9,1.6-1.9l0,0
			c-0.6-4.7-2-8.3-4.4-10.8c-2.4-2.5-5.5-3.8-9.4-3.8c-5.1,0-9.1,1.5-11.9,4.6c-2.8,3.1-4.2,7.4-4.2,13v10.2c0,5.5,1.5,9.7,4.6,12.7
			c3.1,3,7.4,4.5,12.9,4.5c2.8,0,5.7-0.5,8.5-1.5c2.4-0.9,4.6-2,6.6-3.5c0.6-0.5,1.5-0.4,2.1,0.1l11.5,10.2c0.7,0.7,0.8,1.8,0,2.5
			c-3.8,3.2-8.1,5.8-12.7,7.6c-5.2,2.1-10.5,3.1-15.8,3.1C668.3,115.5,661.7,114.1,656.2,111.3z"/>
	</g>
</g>
<g id="Layer_1">
</g>
<g id="Layer_3">
</g>
<g id="Layer_4">
</g>
</svg>
