<?xml version="1.0" encoding="utf-8"?>
<!-- Generator: Adobe Illustrator 24.1.1, SVG Export Plug-In . SVG Version: 6.00 Build 0)  -->
<svg version="1.1" xmlns="http://www.w3.org/2000/svg" xmlns:xlink="http://www.w3.org/1999/xlink" x="0px" y="0px"
	 viewBox="0 0 713.1 154.2" style="enable-background:new 0 0 713.1 154.2;" xml:space="preserve">
<style type="text/css">
	.st0{fill:url(#SVGID_1_);}
	.st1{fill:url(#SVGID_2_);}
	.st2{fill:url(#SVGID_3_);}
	.st3{fill:url(#SVGID_4_);}
	.st4{fill:url(#SVGID_5_);}
	.st5{fill:url(#SVGID_6_);}
	.st6{fill:#FFFFFF;}
	.st7{fill:#010101;}
	.st8{fill:url(#SVGID_7_);}
	.st9{fill:url(#SVGID_8_);}
	.st10{fill:url(#SVGID_9_);}
	.st11{fill:url(#SVGID_10_);}
	.st12{fill:url(#SVGID_11_);}
	.st13{fill:url(#SVGID_12_);}
</style>
<g id="Layer_2">
	<g>
		<path class="st6" d="M203.7,34.2h14.7c1.8,0,3.3,1.5,3.3,3.3v92.1c0,9.9-8,18-18,18h0c-1.8,0-3.3-1.5-3.3-3.3V37.5
			C200.4,35.7,201.8,34.2,203.7,34.2z M228.2,112.3c-3.4-2.4-6-5.8-7.6-10.2l1.1-18.4c0,2.6,0.5,4.9,1.4,6.8
			c0.9,1.9,2.3,3.3,4.1,4.3c1.8,1,3.9,1.5,6.5,1.5c4,0,7.1-1.3,9.3-4c2.2-2.6,3.3-6.4,3.3-11.2V68.3c0-4.9-1.1-8.7-3.3-11.4
			c-2.2-2.7-5.3-4.1-9.3-4.1c-2.5,0-4.7,0.5-6.5,1.5s-3.1,2.5-4.1,4.4l-1.7,3.5L220,47.8c2.2-4.7,5-8.3,8.6-10.9
			c3.5-2.6,7.5-3.8,11.8-3.8c5.7,0,10.6,1.4,14.6,4.1c4.1,2.7,7.2,6.8,9.3,12c2.1,5.3,3.2,11.6,3.2,19v12.9c0,7.3-1.1,13.6-3.2,18.8
			c-2.1,5.2-5.2,9.2-9.3,11.9c-4.1,2.7-8.9,4.1-14.6,4.1C235.6,115.9,231.6,114.7,228.2,112.3z"/>
		<path class="st6" d="M289.3,111.8c-5.2-2.7-9.2-6.7-11.9-12c-2.7-5.3-4.1-11.6-4.1-19V67.7c0-7.3,1.4-13.5,4.1-18.7
			s6.7-9.2,11.9-11.9c5.2-2.7,11.5-4.1,18.8-4.1c7.3,0,13.6,1.4,18.8,4.1c5.2,2.7,9.2,6.7,11.9,11.9s4.1,11.4,4.1,18.7v13.3
			c0,7.3-1.4,13.6-4.1,18.8s-6.7,9.2-11.9,11.9c-5.2,2.7-11.5,4.1-18.8,4.1C300.8,115.9,294.5,114.6,289.3,111.8z M318.1,91.7
			c2.4-2.5,3.6-6,3.6-10.6V67.7c0-4.5-1.2-8-3.6-10.5c-2.4-2.5-5.7-3.7-10-3.7c-4.2,0-7.5,1.2-9.9,3.7c-2.4,2.5-3.5,6-3.5,10.5v13.3
			c0,4.6,1.2,8.1,3.5,10.6c2.3,2.5,5.6,3.8,9.9,3.8C312.4,95.4,315.7,94.2,318.1,91.7z"/>
		<path class="st6" d="M370.9,88.1c0,2,0.6,3.5,1.7,4.5c1.1,1.1,2.7,1.6,4.8,1.6l0,0c2,0,3.6,1.6,3.6,3.6v13.3c0,2-1.6,3.6-3.6,3.6
			H370c-6.5,0-11.5-1.9-15.1-5.6c-3.6-3.7-5.4-9-5.4-15.8V5.5c0-2,1.6-3.6,3.6-3.6h14.1c2,0,3.6,1.6,3.6,3.6V88.1z"/>
		<path class="st6" d="M377.2,34.2h13.5c1.2,0,2.4,0.8,2.8,1.9l25.7,66.5c0.4,1,0.2,2.1-0.4,3l-9.1,11.6c-1.4,1.8-4.4,1.4-5.2-0.8
			l-30.2-78.1C373.6,36.3,375.1,34.2,377.2,34.2z M440.5,34.2c3.3,0,5.6,3.3,4.5,6.3l-33.6,93.1c-1.3,3.7-3,6.6-5,8.7
			c-2,2.1-4.5,3.7-7.4,4.6c-2.9,0.9-6.5,1.4-10.8,1.4h0c-2.6,0-4.7-2.1-4.7-4.7v-11.2c0-2.6,2.1-4.7,4.7-4.7h0
			c2.3,0,4.2-0.5,5.7-1.5c1.5-1,2.7-2.7,3.5-4.9l28.8-83.9c0.7-1.9,2.5-3.2,4.5-3.2H440.5z"/>
		<path class="st6" d="M436.5,34.2H476c2.3,0,4.2,1.5,4.2,3.4v11.3c0,1.9-1.9,3.4-4.2,3.4h-39.5c-2.3,0-4.2-1.5-4.2-3.4V37.6
			C432.3,35.7,434.2,34.2,436.5,34.2z M454,109.8c-3.3-3.6-4.9-8.9-4.9-15.9V16c0-2.9,2.4-5.3,5.3-5.3H465c2.9,0,5.3,2.4,5.3,5.3
			v72.5c0,2,0.4,3.5,1.2,4.5c0.8,1.1,1.9,1.6,3.4,1.6l0,0c2.9,0,5.3,2.4,5.3,5.3v9.9c0,2.9-2.4,5.3-5.3,5.3h-5.4
			C462.4,115.2,457.3,113.4,454,109.8z"/>
		<path class="st6" d="M502.9,111.8c-5.2-2.7-9.2-6.7-11.9-12c-2.7-5.3-4.1-11.6-4.1-19V67.7c0-7.3,1.4-13.5,4.1-18.7
			c2.7-5.2,6.7-9.2,11.9-11.9c5.2-2.7,11.5-4.1,18.8-4.1c7.3,0,13.6,1.4,18.8,4.1c5.2,2.7,9.2,6.7,11.9,11.9s4.1,11.4,4.1,18.7v13.3
			c0,7.3-1.4,13.6-4.1,18.8s-6.7,9.2-11.9,11.9c-5.2,2.7-11.5,4.1-18.8,4.1C514.4,115.9,508.1,114.6,502.9,111.8z M531.6,91.7
			c2.4-2.5,3.6-6,3.6-10.6V67.7c0-4.5-1.2-8-3.6-10.5c-2.4-2.5-5.7-3.7-10-3.7c-4.2,0-7.5,1.2-9.9,3.7c-2.4,2.5-3.5,6-3.5,10.5v13.3
			c0,4.6,1.2,8.1,3.5,10.6c2.3,2.5,5.6,3.8,9.9,3.8C525.9,95.4,529.3,94.2,531.6,91.7z"/>
		<path class="st6" d="M567.8,34.2h12c2.6,0,4.6,2.1,4.6,4.6v92.1c0,9.2-7.4,16.6-16.6,16.6h0c-2.6,0-4.6-2.1-4.6-4.6v-104
			C563.2,36.3,565.2,34.2,567.8,34.2z M591,112.3c-3.4-2.4-6-5.8-7.6-10.2l1.1-18.4c0,2.6,0.5,4.9,1.4,6.8c0.9,1.9,2.3,3.3,4.1,4.3
			c1.8,1,3.9,1.5,6.5,1.5c4,0,7.1-1.3,9.3-4c2.2-2.6,3.3-6.4,3.3-11.2V68.3c0-4.9-1.1-8.7-3.3-11.4c-2.2-2.7-5.3-4.1-9.3-4.1
			c-2.5,0-4.7,0.5-6.5,1.5c-1.8,1-3.1,2.5-4.1,4.4c-0.9,1.9-1.4,4.2-1.4,7l-1.6-17.9c2.2-4.7,5-8.3,8.6-10.9
			c3.5-2.6,7.5-3.8,11.8-3.8c5.7,0,10.6,1.4,14.6,4.1c4.1,2.7,7.2,6.8,9.3,12c2.1,5.3,3.2,11.6,3.2,19v12.9c0,7.3-1.1,13.6-3.2,18.8
			c-2.1,5.2-5.2,9.2-9.3,11.9c-4.1,2.7-8.9,4.1-14.6,4.1C598.4,115.9,594.4,114.7,591,112.3z"/>
		<path class="st6" d="M654.7,111.7c-5.5-2.8-9.7-6.9-12.6-12.3c-2.9-5.4-4.3-11.9-4.3-19.5v-9.1c0-8,1.4-14.8,4.2-20.4
			c2.8-5.6,6.8-9.9,12.1-12.9c5.3-2.9,11.7-4.4,19.2-4.4c7,0,13.1,1.8,18.1,5.3c5,3.5,8.8,8.6,11.4,15.3c2.6,6.7,3.9,14.8,3.9,24.3
			v3.6c0,0.9-0.7,1.7-1.7,1.7h-51.8c-0.9,0-1.7-0.7-1.7-1.7v-11c0-0.9,0.7-1.7,1.7-1.7h32.2c1,0,1.8-0.9,1.6-1.9l0,0
			c-0.6-4.7-2-8.3-4.4-10.8c-2.4-2.5-5.5-3.8-9.4-3.8c-5.1,0-9.1,1.5-11.9,4.6c-2.8,3.1-4.2,7.4-4.2,13v10.2c0,5.5,1.5,9.7,4.6,12.7
			c3.1,3,7.4,4.5,12.9,4.5c2.8,0,5.7-0.5,8.5-1.5c2.4-0.9,4.6-2,6.6-3.5c0.6-0.5,1.5-0.4,2.1,0.1l11.5,10.2c0.7,0.7,0.8,1.8,0,2.5
			c-3.8,3.2-8.1,5.8-12.7,7.6c-5.2,2.1-10.5,3.1-15.8,3.1C666.9,115.9,660.2,114.5,654.7,111.7z"/>
	</g>
	<g>
		<g>
			<path class="st6" d="M20.9,56.6c5.9,2.1,11.8,4.3,17.7,6.4c9.4,3.4,18.7,6.8,28.1,10.2c2.2,0.8,4.3,1.6,6.5,2.3
				c1.8,0.7,2.6-2.2,0.8-2.9c-5.9-2.1-11.8-4.3-17.7-6.4c-9.4-3.4-18.7-6.8-28.1-10.2c-2.2-0.8-4.3-1.6-6.5-2.3
				C19.9,53,19.1,55.9,20.9,56.6L20.9,56.6z"/>
		</g>
	</g>
	<g>
		<g>
			<path class="st6" d="M87.6,68.8c5.9-2.2,11.8-4.4,17.7-6.6c9.4-3.5,18.7-7,28.1-10.5c2.1-0.8,4.3-1.6,6.4-2.4
				c1.8-0.7,1-3.6-0.8-2.9c-5.9,2.2-11.8,4.4-17.7,6.6c-9.4,3.5-18.7,7-28.1,10.5c-2.1,0.8-4.3,1.6-6.4,2.4
				C85,66.6,85.8,69.5,87.6,68.8L87.6,68.8z"/>
		</g>
	</g>
	<g>
		<g>
			<path class="st6" d="M148.6,45.4c-3.6,7-7.3,14.1-10.9,21.1c-5.4,10.4-10.8,20.9-16.2,31.3c-1.3,2.5-2.6,6.2-5.3,7.4
				c-2.1,1-5.3,0.6-7.6,0.6c-11.2,0-22.3,0-33.5,0c-11,0-22.1,0-33.1,0c-1.3,0-2.5,0-3.8,0c-0.2,0-0.6-0.1-0.8,0
				c-0.4,0.2,0.4-2,0.5,0.6c0,2.7-0.4,0.4-0.2,0.5c0.2,0.1,1.1-0.6,1.3-0.7c1-0.5,1.9-1,2.9-1.6c7.8-4.3,15.7-8.5,23.5-12.8
				C76.7,85.7,87.9,79.6,99,73.5c10.6-5.8,21.2-11.5,31.8-17.3c5.9-3.2,11.8-6.4,17.7-9.6c0.3-0.2,0.6-0.3,0.8-0.5
				c1.7-0.9,0.2-3.5-1.5-2.6c-4.3,2.3-8.6,4.7-13,7c-10,5.5-20.1,10.9-30.1,16.4c-11.6,6.3-23.3,12.6-34.9,19
				c-8.9,4.8-17.8,9.6-26.7,14.5c-2.1,1.1-4.2,2.3-6.3,3.4c-0.8,0.4-1.4,0.8-1.8,1.6c-0.6,1.6,0.6,3.2,2.3,3.3c0.2,0,0.4,0,0.6,0
				c9,0,17.9,0,26.9,0c12.5,0,25,0,37.5,0c3.4,0,6.9,0,10.3,0c1.5,0,3-0.1,4.5-0.7c2.2-0.9,3.7-2.6,4.7-4.7
				c4.5-8.7,9-17.4,13.5-26.1c4.9-9.6,9.9-19.1,14.8-28.7c0.3-0.5,0.6-1.1,0.8-1.6C152.1,45.2,149.5,43.7,148.6,45.4L148.6,45.4z"/>
		</g>
	</g>
	<g>
		<g>
			<path class="st6" d="M2.2,46.2c4.2,2.3,8.4,4.6,12.7,6.8c9.9,5.3,19.8,10.7,29.7,16C56,75.3,67.5,81.5,79,87.7
				c9.1,4.9,18.1,9.8,27.2,14.7c2.3,1.2,4.6,2.5,6.9,3.7c0.1,0.1,1,0.7,1.2,0.6c-0.2,0.1-0.3-1.6,0.3-1c0,0-0.1,0-0.1,0
				c-0.2-0.1-0.7,0-0.9,0c-9.3,0-18.5,0-27.8,0c-12.3,0-24.7,0-37,0c-3.4,0-6.7,0-10.1,0c-1.4,0-2.7-0.1-3.9-0.9
				c-1.1-0.8-1.6-1.9-2.2-3c-4.7-9-9.5-18.1-14.2-27.1C13.5,65.5,8.7,56.3,3.8,47c-0.2-0.4-0.4-0.8-0.6-1.2
				c-0.1-0.1-0.1-0.3-0.2-0.3c0,0,0-0.1,0-0.1c0,0,0,0,0,0c0,0,0,0,0,0c-0.2-0.3-0.3,0-0.4,0.9c1.8,0.6,2.6-2.3,0.8-2.9
				c-2.2-0.8-3.9,1.5-3,3.5c0.1,0.2,0.2,0.4,0.3,0.6C1.3,48.8,2,50,2.6,51.2c2.5,4.7,4.9,9.4,7.4,14.1c5.8,11,11.6,22,17.4,33.1
				c1.2,2.3,2.2,4.7,3.7,6.9c1.6,2.4,4.2,3.6,7.1,3.6c1.1,0,2.1,0,3.2,0c11.1,0,22.1,0,33.2,0c11.6,0,23.3,0,34.9,0
				c1.4,0,2.8,0,4.2,0c1.2,0,2.5,0,3.2-1.2c1.5-2.6-1.8-3.8-3.6-4.8c-7.4-4-14.9-8-22.3-12.1C79.4,84.6,68,78.4,56.6,72.2
				c-11.1-6-22.1-12-33.2-18c-6.3-3.4-12.5-6.8-18.8-10.2c-0.3-0.2-0.6-0.3-0.9-0.5C2,42.7,0.5,45.3,2.2,46.2z"/>
		</g>
	</g>
	<g>
		<g>
			<path class="st6" d="M59.2,75.2c4.3-4.7,8.6-9.5,13.5-13.6c0.6-0.5,1.1-0.9,1.7-1.3c0.2-0.2,0.5-0.3,0.7-0.5
				c0.1-0.1,0.2-0.1,0.3-0.2c0.3-0.1,0.1-0.1,0.1,0c0.1,0,0.2-0.1,0.3-0.1c0.2,0.1-0.3,0-0.1,0c0,0-0.8-0.3-0.8-0.3
				c-0.1,0.1,1,0.4,1.1,0.4c0.2,0.1-0.2-0.1,0,0c0.2,0.1,0.4,0.1,0.7,0.3c0.3,0.2,0.5,0.4,0.8,0.6c2.6,2.4,5,5,7.4,7.5
				c2.3,2.4,4.6,4.7,6.9,7.1c1.3,1.4,3.5-0.7,2.1-2.1c-4.5-4.7-9-9.3-13.6-13.9c-1.2-1.2-2.6-2.6-4.4-2.5c0.4,0.1,0.7,0.3,1.1,0.4
				c-1.2-1-2.6-0.4-3.8,0.4c-1.6,1.1-3.1,2.4-4.5,3.7c-3.3,3.1-6.4,6.3-9.5,9.6c-0.7,0.8-1.4,1.6-2.2,2.3
				C55.8,74.5,57.9,76.6,59.2,75.2L59.2,75.2z"/>
		</g>
	</g>
</g>
<g id="Layer_1">
</g>
<g id="Layer_3">
</g>
<g id="Layer_4">
</g>
</svg>
