<?xml version="1.0" encoding="utf-8"?>
<!-- Generator: Adobe Illustrator 24.2.1, SVG Export Plug-In . SVG Version: 6.00 Build 0)  -->
<svg version="1.1" id="Layer_2" xmlns="http://www.w3.org/2000/svg" xmlns:xlink="http://www.w3.org/1999/xlink" x="0px" y="0px"
	 viewBox="0 0 128.2 128" style="enable-background:new 0 0 128.2 128;" xml:space="preserve">
<style type="text/css">
	.st0{fill:url(#SVGID_1_);}
	.st1{fill:url(#SVGID_2_);}
	.st2{fill:url(#SVGID_3_);}
	.st3{fill:url(#SVGID_4_);}
	.st4{fill:url(#SVGID_5_);}
	.st5{fill:url(#SVGID_6_);}
</style>
<g>
	<g>
		
			<linearGradient id="SVGID_1_" gradientUnits="userSpaceOnUse" x1="28.5538" y1="83.1341" x2="68.6194" y2="62.3266" gradientTransform="matrix(1 0 0 -1 0 130)">
			<stop  offset="9.483465e-07" style="stop-color:#355D8E"/>
			<stop  offset="1" style="stop-color:#45C8F5"/>
		</linearGradient>
		<path class="st0" d="M64.6,70.8L14.9,43.9c-0.8-0.5-0.2-1.6,0.6-1.3l49.1,17.8V70.8z"/>
	</g>
	
		<linearGradient id="SVGID_2_" gradientUnits="userSpaceOnUse" x1="92.238" y1="80.1647" x2="68.9956" y2="64.7803" gradientTransform="matrix(1 0 0 -1 0 130)">
		<stop  offset="9.483465e-07" style="stop-color:#355D8E"/>
		<stop  offset="1" style="stop-color:#45C8F5"/>
	</linearGradient>
	<path class="st1" d="M113.4,43.7L64.5,70.4l-0.1-10l48.4-18C113.6,42.1,114.1,43.3,113.4,43.7z"/>
	
		<linearGradient id="SVGID_3_" gradientUnits="userSpaceOnUse" x1="41.4084" y1="68.6298" x2="64.1867" y2="68.6298" gradientTransform="matrix(1 0 0 -1 0 130)">
		<stop  offset="9.483465e-07" style="stop-color:#4B80C2"/>
		<stop  offset="1" style="stop-color:#45C8F5"/>
	</linearGradient>
	<path class="st2" d="M62.7,50.8L41.9,71.4c-0.3,0.3-0.5,0.7-0.5,1.1h22.8V50.2C63.6,50.2,63.1,50.4,62.7,50.8z"/>
	
		<linearGradient id="SVGID_4_" gradientUnits="userSpaceOnUse" x1="64.1826" y1="68.6224" x2="86.6891" y2="68.6224" gradientTransform="matrix(1 0 0 -1 0 130)">
		<stop  offset="9.483465e-07" style="stop-color:#355D8E"/>
		<stop  offset="1" style="stop-color:#45C8F5"/>
	</linearGradient>
	<path class="st3" d="M86.1,71.4L65.4,50.8c-0.4-0.4-0.8-0.5-1.2-0.5v22.3h22.5C86.7,72.1,86.4,71.8,86.1,71.4z"/>
	<g>
		
			<linearGradient id="SVGID_5_" gradientUnits="userSpaceOnUse" x1="144.2858" y1="86.5721" x2="70.4332" y2="45.9756" gradientTransform="matrix(1 0 0 -1 0 130)">
			<stop  offset="4.741732e-07" style="stop-color:#4B80C2"/>
			<stop  offset="0.2713" style="stop-color:#4A94D0"/>
			<stop  offset="0.7631" style="stop-color:#48B8E9"/>
			<stop  offset="1" style="stop-color:#45C8F5"/>
		</linearGradient>
		<path class="st4" d="M120.8,41.1L98.2,84.8c-1,1.9-3,3.1-5.1,3.1H34.7c-0.8,0-1-1-0.3-1.4l85.4-46.4
			C120.5,39.8,121.2,40.4,120.8,41.1z"/>
	</g>
	<g>
		
			<linearGradient id="SVGID_6_" gradientUnits="userSpaceOnUse" x1="74.4023" y1="35.3277" x2="11.1871" y2="79.5914" gradientTransform="matrix(1 0 0 -1 0 130)">
			<stop  offset="9.483465e-07" style="stop-color:#4B80C2"/>
			<stop  offset="1" style="stop-color:#45C8F5"/>
		</linearGradient>
		<path class="st5" d="M8.3,40.1l85.8,46.4c0.7,0.4,0.4,1.4-0.3,1.4H34.9c-1.8,0-3.6-1.1-4.4-2.7L7.3,41.1C7,40.5,7.7,39.8,8.3,40.1
			z"/>
	</g>
</g>
</svg>
