<?xml version="1.0" encoding="utf-8"?>
<!-- Generator: Adobe Illustrator 24.1.1, SVG Export Plug-In . SVG Version: 6.00 Build 0)  -->
<svg version="1.1" id="Layer_1" xmlns="http://www.w3.org/2000/svg" xmlns:xlink="http://www.w3.org/1999/xlink" x="0px" y="0px"
	 viewBox="0 0 202 529" style="enable-background:new 0 0 202 529;" xml:space="preserve">
<style type="text/css">
	.st0{fill-rule:evenodd;clip-rule:evenodd;fill:url(#SVGID_1_);}
	.st1{fill-rule:evenodd;clip-rule:evenodd;fill:url(#SVGID_2_);}
	.st2{fill-rule:evenodd;clip-rule:evenodd;fill:url(#SVGID_3_);}
	.st3{fill-rule:evenodd;clip-rule:evenodd;fill:url(#SVGID_4_);}
</style>
<linearGradient id="SVGID_1_" gradientUnits="userSpaceOnUse" x1="-0.999" y1="58.4235" x2="201.238" y2="58.4235">
	<stop  offset="4.741732e-07" style="stop-color:#4B80C2"/>
	<stop  offset="0.2713" style="stop-color:#4A94D0"/>
	<stop  offset="0.7631" style="stop-color:#48B8E9"/>
	<stop  offset="1" style="stop-color:#45C8F5"/>
</linearGradient>
<path class="st0" d="M100.1,0L-1,58.4v0.1l101.1,58.4l101.1-58.4v-0.1L100.1,0z"/>
<linearGradient id="SVGID_2_" gradientUnits="userSpaceOnUse" x1="-1" y1="145.9955" x2="100.119" y2="145.9955">
	<stop  offset="9.483465e-07" style="stop-color:#355D8E"/>
	<stop  offset="1" style="stop-color:#45C8F5"/>
</linearGradient>
<path class="st1" d="M-1,58.5v116.7l101.1,58.4V116.8L-1,58.5L-1,58.5z"/>
<linearGradient id="SVGID_3_" gradientUnits="userSpaceOnUse" x1="-0.999" y1="352.424" x2="201.238" y2="352.424">
	<stop  offset="4.741732e-07" style="stop-color:#4B80C2"/>
	<stop  offset="0.2713" style="stop-color:#4A94D0"/>
	<stop  offset="0.7631" style="stop-color:#48B8E9"/>
	<stop  offset="1" style="stop-color:#45C8F5"/>
</linearGradient>
<path class="st2" d="M100.1,294L-1,352.4v0.1l101.1,58.4l101.1-58.4v-0.1L100.1,294z"/>
<linearGradient id="SVGID_4_" gradientUnits="userSpaceOnUse" x1="100.119" y1="439.9955" x2="201.238" y2="439.9955">
	<stop  offset="4.741732e-07" style="stop-color:#4B80C2"/>
	<stop  offset="0.2713" style="stop-color:#4A94D0"/>
	<stop  offset="0.7631" style="stop-color:#48B8E9"/>
	<stop  offset="1" style="stop-color:#45C8F5"/>
</linearGradient>
<path class="st3" d="M100.1,410.8v116.7l101.1-58.4V352.5L100.1,410.8L100.1,410.8z"/>
</svg>
